<svg id="logo-scbs" xmlns="http://www.w3.org/2000/svg" width="427.59" height="183.73" viewBox="0 0 427.59 183.73">
  <path id="Tracé_44951" data-name="Tracé 44951" d="M25.02,169.84a4.56,4.56,0,0,0-1.21-.6c-.13-.04-.27-.08-.4-.11-.07-.02-.14-.04-.22-.06l-.21-.06c-.17-.05-.35-.1-.53-.15q-.7-.165-1.35-.3a7.6,7.6,0,0,1-1.18-.34,2.239,2.239,0,0,1-.82-.53,1.151,1.151,0,0,1-.3-.82,1.868,1.868,0,0,1,.21-.92,1.757,1.757,0,0,1,.56-.59,2.6,2.6,0,0,1,.82-.32,4.917,4.917,0,0,1,.94-.1,3.173,3.173,0,0,1,1.93.55,2.325,2.325,0,0,1,.87,1.76v.05h.16l1-1.73.02-.03v-.03a3.5,3.5,0,0,0-.9-1.1,3.687,3.687,0,0,0-1.36-.67,6.312,6.312,0,0,0-1.67-.21,6.236,6.236,0,0,0-1.56.2,4.459,4.459,0,0,0-1.36.62,3.183,3.183,0,0,0-.96,1.07,3.13,3.13,0,0,0-.36,1.54,2.644,2.644,0,0,0,.32,1.35,2.678,2.678,0,0,0,.86.88,5.158,5.158,0,0,0,1.21.54c.44.13.9.25,1.36.36s.91.2,1.35.3a.451.451,0,0,1,.11.03c.03,0,.06.02.09.02a6.268,6.268,0,0,1,.98.32,2.222,2.222,0,0,1,.82.59,1.4,1.4,0,0,1,.3.93,1.787,1.787,0,0,1-.25,1,1.867,1.867,0,0,1-.66.62,3.007,3.007,0,0,1-.93.32,5.3,5.3,0,0,1-2.28-.06c-.03,0-.05-.02-.08-.03s-.04-.02-.07-.03a2.856,2.856,0,0,1-.91-.44,2.619,2.619,0,0,1-.73-.85,2.585,2.585,0,0,1-.28-1.22v-.06H16.77v.06a4.029,4.029,0,0,0,.39,1.84,3.566,3.566,0,0,0,1.05,1.28,4.6,4.6,0,0,0,1.33.67.318.318,0,0,1,.09.03.563.563,0,0,0,.12.04,6.947,6.947,0,0,0,1.85.24,6.871,6.871,0,0,0,1.61-.19,4.571,4.571,0,0,0,1.47-.61,3.479,3.479,0,0,0,1.08-1.08,2.946,2.946,0,0,0,.42-1.61,2.992,2.992,0,0,0-.32-1.45,3.038,3.038,0,0,0-.86-.96" fill="#ff5432"/>
  <path id="Tracé_44952" data-name="Tracé 44952" d="M46.93,168.79H40.96v-4.96H39.3v11.65h1.66V170.2h5.97v5.28h1.65V163.83H46.93Z" fill="#ff5432"/>
  <path id="Tracé_44953" data-name="Tracé 44953" d="M77.27,163.83H75.61v11.65h7.78v-1.41H77.27Z" fill="#ff5432"/>
  <g id="Groupe_33359" data-name="Groupe 33359">
    <path id="Tracé_44954" data-name="Tracé 44954" d="M93.04,170.81a2.923,2.923,0,0,0-.86-.96,4.56,4.56,0,0,0-1.21-.6c-.13-.04-.26-.08-.38-.11l-.23-.06a1.415,1.415,0,0,1-.22-.07c-.17-.05-.34-.1-.52-.14-.48-.11-.92-.21-1.35-.3a7.93,7.93,0,0,1-1.18-.34,2.239,2.239,0,0,1-.82-.53,1.151,1.151,0,0,1-.3-.82,1.868,1.868,0,0,1,.21-.92,1.757,1.757,0,0,1,.56-.59,2.6,2.6,0,0,1,.82-.32,4.917,4.917,0,0,1,.94-.1,3.173,3.173,0,0,1,1.93.55,2.325,2.325,0,0,1,.87,1.76v.05h.16l1-1.73.02-.03v-.03a3.618,3.618,0,0,0-.9-1.1,3.687,3.687,0,0,0-1.36-.67,6.312,6.312,0,0,0-1.67-.21,6.236,6.236,0,0,0-1.56.2,4.459,4.459,0,0,0-1.36.62,3.183,3.183,0,0,0-.96,1.07,3.13,3.13,0,0,0-.36,1.54,2.644,2.644,0,0,0,.32,1.35,2.584,2.584,0,0,0,.86.88,5.158,5.158,0,0,0,1.21.54c.44.13.9.25,1.36.36s.91.2,1.35.3a.451.451,0,0,1,.11.03c.03,0,.06.02.09.02a6.269,6.269,0,0,1,.98.32,2.222,2.222,0,0,1,.82.59,1.4,1.4,0,0,1,.3.93,1.787,1.787,0,0,1-.25,1,1.867,1.867,0,0,1-.66.62,3.1,3.1,0,0,1-.93.32,5.149,5.149,0,0,1-2.28-.06c-.03,0-.05-.02-.08-.03a.212.212,0,0,1-.07-.03,3.084,3.084,0,0,1-.91-.44,2.519,2.519,0,0,1-.73-.85,2.585,2.585,0,0,1-.28-1.22v-.06H83.95v.06a4.029,4.029,0,0,0,.39,1.84,3.566,3.566,0,0,0,1.05,1.28,4.6,4.6,0,0,0,1.33.67l.09.03c.04.02.08.03.12.05a6.947,6.947,0,0,0,1.85.24,6.871,6.871,0,0,0,1.61-.19,4.571,4.571,0,0,0,1.47-.61,3.479,3.479,0,0,0,1.08-1.08,2.946,2.946,0,0,0,.42-1.61,2.992,2.992,0,0,0-.32-1.45" fill="#ff5432"/>
    <path id="Tracé_44955" data-name="Tracé 44955" d="M35.85,171.07a4.249,4.249,0,0,1-.29,1.31h0a3.185,3.185,0,0,1-.66,1.04,2.91,2.91,0,0,1-1,.68,3.428,3.428,0,0,1-1.33.25,4,4,0,0,1-1.38-.22,2.569,2.569,0,0,1-.37-.16,3.405,3.405,0,0,1-1.2-1.02c-.02-.03-.03-.06-.05-.09a.218.218,0,0,0-.05-.08,4.427,4.427,0,0,1-.6-1.35,7.382,7.382,0,0,1-.23-1.85,6.623,6.623,0,0,1,.23-1.73,4.429,4.429,0,0,1,.69-1.47,4.069,4.069,0,0,1,.29-.34,3.555,3.555,0,0,1,.9-.68,3.051,3.051,0,0,1,.98-.31,4.052,4.052,0,0,1,2.09.16,3.646,3.646,0,0,1,.74.37,2.608,2.608,0,0,1,.87,1.08l.05.1.91-1.57-.03-.03a3.86,3.86,0,0,0-.66-.63,4.506,4.506,0,0,0-1.16-.6.535.535,0,0,1-.11-.05c-.06-.02-.12-.05-.19-.07a6.177,6.177,0,0,0-3.22-.07,5.44,5.44,0,0,0-.89.3,5.536,5.536,0,0,0-1.08.67,4.486,4.486,0,0,0-.66.64,5.832,5.832,0,0,0-1.06,1.95,7.7,7.7,0,0,0-.36,2.38,8.347,8.347,0,0,0,.33,2.38,5.471,5.471,0,0,0,1.01,1.93c.06.07.13.14.19.21l.05.05a4.671,4.671,0,0,0,1.45,1.03,3.12,3.12,0,0,0,.39.15,5.918,5.918,0,0,0,1.98.31,4.936,4.936,0,0,0,3.54-1.23,5.3,5.3,0,0,0,1.52-3.43v-.06H35.83v.05Z" fill="#ff5432"/>
    <path id="Tracé_44956" data-name="Tracé 44956" d="M60.13,165.42a5.361,5.361,0,0,0-1.75-1.36,5.543,5.543,0,0,0-2.44-.51,6.03,6.03,0,0,0-.91.07H55l-1.09,1.89.19-.11a164864916520.792,164864916520.792,0,0,1,.06-.04,4.112,4.112,0,0,1,3.58,0,3.641,3.641,0,0,1,1.23,1.07,4.548,4.548,0,0,1,.7,1.51,6.576,6.576,0,0,1,.22,1.71,7.034,7.034,0,0,1-.22,1.71,4.858,4.858,0,0,1-.7,1.51,3.641,3.641,0,0,1-1.23,1.07,4.112,4.112,0,0,1-3.58,0,3.641,3.641,0,0,1-1.23-1.07,4.358,4.358,0,0,1-.7-1.51,6.576,6.576,0,0,1-.22-1.71,5.747,5.747,0,0,1,.05-.69l.03-.27-1.53,2.64v.04c.05.2.1.39.16.57a5.676,5.676,0,0,0,1.06,1.95,5.2,5.2,0,0,0,1.75,1.35,6.2,6.2,0,0,0,4.88,0,5.014,5.014,0,0,0,1.75-1.35,5.849,5.849,0,0,0,1.06-1.95,7.667,7.667,0,0,0,0-4.58,5.676,5.676,0,0,0-1.06-1.95" fill="#ff5432"/>
    <path id="Tracé_44957" data-name="Tracé 44957" d="M72.35,165.42a5.361,5.361,0,0,0-1.75-1.36,5.543,5.543,0,0,0-2.44-.51,6.031,6.031,0,0,0-.91.07h-.03l-1.09,1.89.19-.11a.144.144,0,0,0,.03-.02.144.144,0,0,0,.03-.02,4.112,4.112,0,0,1,3.58,0,3.641,3.641,0,0,1,1.23,1.07,4.548,4.548,0,0,1,.7,1.51,6.576,6.576,0,0,1,.22,1.71,7.034,7.034,0,0,1-.22,1.71,4.859,4.859,0,0,1-.7,1.51,3.641,3.641,0,0,1-1.23,1.07,4.112,4.112,0,0,1-3.58,0,3.641,3.641,0,0,1-1.23-1.07,4.358,4.358,0,0,1-.7-1.51,6.576,6.576,0,0,1-.22-1.71,5.745,5.745,0,0,1,.05-.69l.03-.27-1.53,2.64v.04c.05.2.1.39.16.57A5.676,5.676,0,0,0,64,173.89a5.2,5.2,0,0,0,1.75,1.35,6.2,6.2,0,0,0,4.88,0,5.014,5.014,0,0,0,1.75-1.35,5.849,5.849,0,0,0,1.06-1.95,7.667,7.667,0,0,0,0-4.58,5.676,5.676,0,0,0-1.06-1.95" fill="#ff5432"/>
  </g>
  <path id="Tracé_44958" data-name="Tracé 44958" d="M0,152.14l1.95,3.37,8.21,14.18L2.03,183.73h2.5l16.34-28.22h-2.5l-6.96,12.02L4.45,155.51,2.5,152.14Z" fill="#ff5432"/>
  <g id="Groupe_33360" data-name="Groupe 33360">
    <path id="Tracé_44959" data-name="Tracé 44959" d="M159.09,19.31l-4.72-1.88q-7.065-2.79-7.06-8.69a7.8,7.8,0,0,1,2.89-6.41A11.152,11.152,0,0,1,157.44,0a12.008,12.008,0,0,1,9.68,4.71l-3.58,3.61a7.6,7.6,0,0,0-6.38-3.48,4.794,4.794,0,0,0-3.33,1.1,3.455,3.455,0,0,0-1.22,2.65,3.313,3.313,0,0,0,.99,2.42,10.13,10.13,0,0,0,3.42,1.97l3.62,1.46a15.871,15.871,0,0,1,6.12,3.91,8.114,8.114,0,0,1,1.86,5.47,8.4,8.4,0,0,1-3.12,6.59,12.271,12.271,0,0,1-8.3,2.65,13.95,13.95,0,0,1-6.67-1.58,12.451,12.451,0,0,1-4.7-4.28l3.53-3.61a9.253,9.253,0,0,0,8.26,4.67,6.662,6.662,0,0,0,4.13-1.19,3.726,3.726,0,0,0,1.56-3.11,3.875,3.875,0,0,0-.96-2.65,8.541,8.541,0,0,0-3.26-2.01" fill="#ff5432"/>
    <path id="Tracé_44960" data-name="Tracé 44960" d="M178.77,16.52a14.629,14.629,0,0,0,2.25,8.37,7.571,7.571,0,0,0,6.74,3.34,7.664,7.664,0,0,0,5.07-1.69,9.339,9.339,0,0,0,2.91-4.25,17.867,17.867,0,0,0,.87-5.76,14.5,14.5,0,0,0-2.25-8.28,7.352,7.352,0,0,0-6.6-3.39,7.658,7.658,0,0,0-6.74,3.39,14.5,14.5,0,0,0-2.25,8.28m-5.32-.01a18.209,18.209,0,0,1,3.81-11.76A12.5,12.5,0,0,1,187.57,0a12.743,12.743,0,0,1,10.41,4.76,17.822,17.822,0,0,1,3.9,11.76,18.07,18.07,0,0,1-3.9,11.85,12.749,12.749,0,0,1-10.41,4.71,12.494,12.494,0,0,1-10.32-4.71,18.349,18.349,0,0,1-3.81-11.85" fill="#ff5432"/>
    <path id="Tracé_44961" data-name="Tracé 44961" d="M227.75,18.35V.5h5.5V18.34q0,7.095-3.46,10.91t-9.52,3.82q-6.06,0-9.52-3.82t-3.46-10.91V.5h5.5V18.39q0,9.75,7.48,9.75t7.48-9.79" fill="#ff5432"/>
  </g>
  <path id="Tracé_44962" data-name="Tracé 44962" d="M237.93,5.45V.5h24.82V5.45h-9.82V32.58h-5.46V5.45Z" fill="#ff5432"/>
  <path id="Tracé_44963" data-name="Tracé 44963" d="M294.03,32.58h-5.51V18.71H273.43V32.58h-5.45V.5h5.45V13.73h15.09V.5h5.51Z" fill="#ff5432"/>
  <g id="Groupe_33361" data-name="Groupe 33361">
    <path id="Tracé_44964" data-name="Tracé 44964" d="M160.38,52.66a7.612,7.612,0,0,0-6.74,3.39,14.5,14.5,0,0,0-2.25,8.28,14.785,14.785,0,0,0,2.25,8.37,7.571,7.571,0,0,0,6.74,3.34,8.742,8.742,0,0,0,4.22-.94,9.979,9.979,0,0,0,3.26-3l3.3,3.61a13.3,13.3,0,0,1-10.96,5.17c-4.56,0-7.81-1.57-10.32-4.71a18.349,18.349,0,0,1-3.81-11.85,18.1,18.1,0,0,1,3.81-11.76A12.529,12.529,0,0,1,160.2,47.8a13.832,13.832,0,0,1,6.05,1.21,13.389,13.389,0,0,1,4.63,3.87l-3.39,3.75a8.318,8.318,0,0,0-7.11-3.98" fill="#ff5432"/>
    <path id="Tracé_44965" data-name="Tracé 44965" d="M74.7,22.72q-8.295,0-12.57,6.31-4.2,6.225-4.19,15.44c0,6.14,1.4,11.46,4.19,15.61s6.98,6.23,12.57,6.23a16.37,16.37,0,0,0,7.87-1.75,18.77,18.77,0,0,0,6.07-5.59l6.16,6.74q-7.695,9.645-20.44,9.64c-8.5,0-14.57-2.93-19.24-8.79q-7.095-8.865-7.1-22.1c0-8.82,2.37-16.01,7.1-21.92s11.15-8.87,19.24-8.87a25.835,25.835,0,0,1,11.29,2.26,25.072,25.072,0,0,1,8.64,7.21l-6.33,7q-5.13-7.425-13.26-7.42" fill="#ff5432"/>
  </g>
  <path id="Tracé_44966" data-name="Tracé 44966" d="M202.71,80.38h-5.5V66.52H182.12V80.38h-5.46V48.31h5.46V61.53h15.09V48.31h5.5Z" fill="#ff5432"/>
  <path id="Tracé_44967" data-name="Tracé 44967" d="M226.38,68.53l-4.27-9.43-4.22,9.43Zm-4.59-21h.64l15,32.85h-5.82l-3.26-6.82H215.83l-3.12,6.82h-5.87Z" fill="#ff5432"/>
  <path id="Tracé_44968" data-name="Tracé 44968" d="M257.43,75.9h-.65l-9.67-12.99V80.38h-5.46V47.53h.6l14.81,19.72,14.81-19.72h.6V80.38h-5.46V62.91Z" fill="#ff5432"/>
  <path id="Tracé_44969" data-name="Tracé 44969" d="M291.87,53.25h-6.1V64.46h6.1q7.47,0,7.48-5.63c0-3.75-2.49-5.58-7.48-5.58m.69,16.2h-6.79V80.39h-5.46V48.32h12.25q5.685,0,8.97,2.77a9.53,9.53,0,0,1,3.28,7.71,9.781,9.781,0,0,1-3.3,7.8q-3.3,2.865-8.94,2.86" fill="#ff5432"/>
  <path id="Tracé_44970" data-name="Tracé 44970" d="M322.28,68.53l-4.27-9.43-4.22,9.43Zm-4.59-21h.64l15,32.85h-5.82l-3.26-6.82H311.73l-3.12,6.82h-5.87l14.95-32.85Z" fill="#ff5432"/>
  <path id="Tracé_44971" data-name="Tracé 44971" d="M358.65,68.53h-7.93V63.59h13.07V80.38h-4.63V76.86a9.888,9.888,0,0,1-3.97,2.95,13.222,13.222,0,0,1-5.3,1.08,15.022,15.022,0,0,1-11.24-4.58,16.339,16.339,0,0,1-4.49-11.9,16.332,16.332,0,0,1,4.59-11.99,15.931,15.931,0,0,1,11.74-4.62q8.25,0,12.8,6.04l-3.58,3.66a10.5,10.5,0,0,0-9.08-4.71,10.225,10.225,0,0,0-7.8,3.29,11.627,11.627,0,0,0-3.07,8.33,11.871,11.871,0,0,0,2.89,8.24,9.556,9.556,0,0,0,7.34,3.25,8.981,8.981,0,0,0,6.08-1.97,7.779,7.779,0,0,0,2.59-5.4" fill="#ff5432"/>
  <path id="Tracé_44972" data-name="Tracé 44972" d="M397.13,81.16h-.64L375.67,60.48v19.9h-5.46V47.53h.6l20.82,20.82V48.31h5.5Z" fill="#ff5432"/>
  <path id="Tracé_44973" data-name="Tracé 44973" d="M404.97,48.31V80.38h22.62V75.44H410.43V66.52h16.38V61.53H410.43V53.25h17.16V48.31Z" fill="#ff5432"/>
  <g id="Groupe_33362" data-name="Groupe 33362">
    <path id="Tracé_44974" data-name="Tracé 44974" d="M152.9,114.33v8.92h7.16q7.11,0,7.11-4.67c0-2.84-2.31-4.25-6.93-4.25H152.9Zm6.56-13.27H152.9v8.28h6.83c4.4,0,6.61-1.4,6.61-4.21a3.278,3.278,0,0,0-1.72-3.16,11.371,11.371,0,0,0-5.16-.91m2.15,27.13H147.44V96.12h13.39a13.572,13.572,0,0,1,8.07,2.15,7.324,7.324,0,0,1,2.98,6.36,8.114,8.114,0,0,1-3.62,6.86,8.448,8.448,0,0,1,4.4,7.6,8.147,8.147,0,0,1-2.98,6.66,12.359,12.359,0,0,1-8.07,2.45" fill="#ff5432"/>
    <path id="Tracé_44975" data-name="Tracé 44975" d="M10.09,101.64v16.49H23.31q13.14,0,13.14-8.62,0-7.86-12.8-7.86H10.09ZM22.21,77.12H10.09v15.3H22.72q12.21,0,12.21-7.78c0-2.76-1.06-4.71-3.18-5.83s-5.3-1.69-9.54-1.69m3.98,50.14H0V67.99H24.75q9.405,0,14.92,3.97t5.51,11.75a14.98,14.98,0,0,1-6.7,12.68q8.145,5,8.14,14.04,0,7.785-5.51,12.3t-14.92,4.52" fill="#ff5432"/>
    <path id="Tracé_44976" data-name="Tracé 44976" d="M198.63,113.96V96.12h5.5v17.84q0,7.1-3.46,10.91t-9.52,3.82q-6.06,0-9.52-3.82t-3.46-10.91V96.12h5.5v17.89q0,9.75,7.48,9.75t7.48-9.79" fill="#ff5432"/>
    <path id="Tracé_44977" data-name="Tracé 44977" d="M222.57,114.92l-4.72-1.88q-7.065-2.79-7.06-8.69a7.8,7.8,0,0,1,2.89-6.41,11.143,11.143,0,0,1,7.25-2.33,12.008,12.008,0,0,1,9.68,4.71l-3.58,3.61a7.6,7.6,0,0,0-6.38-3.48,4.794,4.794,0,0,0-3.33,1.1,3.445,3.445,0,0,0-1.21,2.65,3.344,3.344,0,0,0,.98,2.42,10.13,10.13,0,0,0,3.42,1.97l3.62,1.46a15.871,15.871,0,0,1,6.12,3.91,8.114,8.114,0,0,1,1.86,5.47,8.4,8.4,0,0,1-3.12,6.59,12.271,12.271,0,0,1-8.3,2.65,13.95,13.95,0,0,1-6.67-1.58,12.451,12.451,0,0,1-4.7-4.28l3.53-3.61a9.253,9.253,0,0,0,8.26,4.67,6.662,6.662,0,0,0,4.13-1.19,3.726,3.726,0,0,0,1.56-3.11,3.875,3.875,0,0,0-.96-2.65,8.541,8.541,0,0,0-3.26-2.01" fill="#ff5432"/>
  </g>
  <rect id="Rectangle_9082" data-name="Rectangle 9082" width="5.46" height="32.07" transform="translate(238.3 96.12)" fill="#ff5432"/>
  <path id="Tracé_44978" data-name="Tracé 44978" d="M278.52,128.97h-.64l-20.82-20.68v19.9H251.6V95.34h.6l20.82,20.82V96.12h5.5Z" fill="#ff5432"/>
  <path id="Tracé_44979" data-name="Tracé 44979" d="M308.98,128.19H286.37V96.12h22.61v4.94H291.83v8.28H308.2v4.99H291.83v8.92h17.15Z" fill="#ff5432"/>
  <g id="Groupe_33363" data-name="Groupe 33363">
    <path id="Tracé_44980" data-name="Tracé 44980" d="M327.46,114.92l-4.72-1.88q-7.065-2.79-7.06-8.69a7.8,7.8,0,0,1,2.89-6.41,11.143,11.143,0,0,1,7.25-2.33,12.008,12.008,0,0,1,9.68,4.71l-3.58,3.61a7.6,7.6,0,0,0-6.38-3.48,4.794,4.794,0,0,0-3.33,1.1,3.455,3.455,0,0,0-1.22,2.65,3.313,3.313,0,0,0,.99,2.42,10.13,10.13,0,0,0,3.42,1.97l3.62,1.46a15.871,15.871,0,0,1,6.12,3.91,8.115,8.115,0,0,1,1.86,5.47,8.4,8.4,0,0,1-3.12,6.59,12.271,12.271,0,0,1-8.3,2.65,13.95,13.95,0,0,1-6.67-1.58,12.451,12.451,0,0,1-4.7-4.28l3.53-3.61a9.253,9.253,0,0,0,8.26,4.67,6.662,6.662,0,0,0,4.13-1.19,3.726,3.726,0,0,0,1.56-3.11,3.875,3.875,0,0,0-.96-2.65,8.541,8.541,0,0,0-3.26-2.01" fill="#ff5432"/>
    <path id="Tracé_44981" data-name="Tracé 44981" d="M354.84,114.92l-4.72-1.88q-7.065-2.79-7.06-8.69a7.8,7.8,0,0,1,2.89-6.41,11.143,11.143,0,0,1,7.25-2.33,12.008,12.008,0,0,1,9.68,4.71l-3.58,3.61a7.6,7.6,0,0,0-6.38-3.48,4.794,4.794,0,0,0-3.33,1.1,3.445,3.445,0,0,0-1.21,2.65,3.344,3.344,0,0,0,.98,2.42,10.13,10.13,0,0,0,3.42,1.97l3.62,1.46a15.871,15.871,0,0,1,6.12,3.91,8.115,8.115,0,0,1,1.86,5.47,8.4,8.4,0,0,1-3.12,6.59,12.271,12.271,0,0,1-8.3,2.65,13.95,13.95,0,0,1-6.67-1.58,12.451,12.451,0,0,1-4.7-4.28l3.53-3.61a9.253,9.253,0,0,0,8.26,4.67,6.662,6.662,0,0,0,4.13-1.19,3.726,3.726,0,0,0,1.56-3.11,3.875,3.875,0,0,0-.96-2.65,8.541,8.541,0,0,0-3.26-2.01" fill="#ff5432"/>
    <path id="Tracé_44982" data-name="Tracé 44982" d="M159.09,162.73l-4.72-1.88q-7.065-2.79-7.06-8.69a7.8,7.8,0,0,1,2.89-6.41,11.143,11.143,0,0,1,7.25-2.33,12.008,12.008,0,0,1,9.68,4.71l-3.58,3.61a7.6,7.6,0,0,0-6.38-3.48,4.794,4.794,0,0,0-3.33,1.1,3.455,3.455,0,0,0-1.22,2.65,3.313,3.313,0,0,0,.99,2.42,10.13,10.13,0,0,0,3.42,1.97l3.62,1.46a15.871,15.871,0,0,1,6.12,3.91,8.114,8.114,0,0,1,1.86,5.47,8.4,8.4,0,0,1-3.12,6.59,12.271,12.271,0,0,1-8.3,2.65,13.95,13.95,0,0,1-6.67-1.58,12.451,12.451,0,0,1-4.7-4.28l3.53-3.61a9.253,9.253,0,0,0,8.26,4.67,6.662,6.662,0,0,0,4.13-1.19,3.726,3.726,0,0,0,1.56-3.11,3.875,3.875,0,0,0-.96-2.65,8.541,8.541,0,0,0-3.26-2.01" fill="#ff5432"/>
    <path id="Tracé_44983" data-name="Tracé 44983" d="M187.76,148.28a7.612,7.612,0,0,0-6.74,3.39,14.5,14.5,0,0,0-2.25,8.28,14.785,14.785,0,0,0,2.25,8.37,7.571,7.571,0,0,0,6.74,3.34,8.742,8.742,0,0,0,4.22-.94,9.979,9.979,0,0,0,3.26-3l3.3,3.61a13.317,13.317,0,0,1-10.96,5.17c-4.55,0-7.81-1.57-10.32-4.71a18.349,18.349,0,0,1-3.81-11.85,18.1,18.1,0,0,1,3.81-11.76,12.529,12.529,0,0,1,10.32-4.76,13.832,13.832,0,0,1,6.05,1.21,13.389,13.389,0,0,1,4.63,3.87l-3.39,3.75a8.343,8.343,0,0,0-7.11-3.98" fill="#ff5432"/>
  </g>
  <path id="Tracé_44984" data-name="Tracé 44984" d="M230.09,176h-5.5V162.14H209.5V176h-5.46V143.93h5.46v13.22h15.09V143.93h5.5Z" fill="#ff5432"/>
  <g id="Groupe_33364" data-name="Groupe 33364">
    <path id="Tracé_44985" data-name="Tracé 44985" d="M241.33,159.94a14.629,14.629,0,0,0,2.25,8.37,7.571,7.571,0,0,0,6.74,3.34,7.664,7.664,0,0,0,5.07-1.69,9.34,9.34,0,0,0,2.91-4.25,17.867,17.867,0,0,0,.87-5.76,14.5,14.5,0,0,0-2.25-8.28,7.352,7.352,0,0,0-6.6-3.39,7.658,7.658,0,0,0-6.74,3.39,14.5,14.5,0,0,0-2.25,8.28m-5.32-.01a18.209,18.209,0,0,1,3.81-11.76,12.529,12.529,0,0,1,10.32-4.76,12.743,12.743,0,0,1,10.41,4.76,17.822,17.822,0,0,1,3.9,11.76,18.07,18.07,0,0,1-3.9,11.85,12.749,12.749,0,0,1-10.41,4.71,12.494,12.494,0,0,1-10.32-4.71,18.349,18.349,0,0,1-3.81-11.85" fill="#ff5432"/>
    <path id="Tracé_44986" data-name="Tracé 44986" d="M274.85,159.94a14.629,14.629,0,0,0,2.25,8.37,7.571,7.571,0,0,0,6.74,3.34,7.664,7.664,0,0,0,5.07-1.69,9.34,9.34,0,0,0,2.91-4.25,17.867,17.867,0,0,0,.87-5.76,14.5,14.5,0,0,0-2.25-8.28,7.352,7.352,0,0,0-6.6-3.39,7.658,7.658,0,0,0-6.74,3.39,14.5,14.5,0,0,0-2.25,8.28m-5.32-.01a18.209,18.209,0,0,1,3.81-11.76,12.529,12.529,0,0,1,10.32-4.76,12.743,12.743,0,0,1,10.41,4.76,17.822,17.822,0,0,1,3.9,11.76,18.07,18.07,0,0,1-3.9,11.85,12.749,12.749,0,0,1-10.41,4.71,12.494,12.494,0,0,1-10.32-4.71,18.349,18.349,0,0,1-3.81-11.85" fill="#ff5432"/>
  </g>
  <path id="Tracé_44987" data-name="Tracé 44987" d="M324.62,176H303.93V143.93h5.46v27.13h15.23Z" fill="#ff5432"/>
  <rect id="Rectangle_9083" data-name="Rectangle 9083" width="1.47" height="176.34" transform="translate(120.8)" fill="#ff5432"/>
  <g id="Groupe_33365" data-name="Groupe 33365">
    <path id="Tracé_44988" data-name="Tracé 44988" d="M38.88,34.17q-3.45-4.035-11.37-7.26l-6.73-2.72a18.666,18.666,0,0,1-6.34-3.65,6.213,6.213,0,0,1-1.83-4.5,6.389,6.389,0,0,1,2.26-4.93,8.851,8.851,0,0,1,6.17-2.04q7.155,0,11.84,6.46l6.64-6.71Q32.365.06,21.55.06a26.461,26.461,0,0,0-4.46.38L2.79,14.75q-.06.75-.06,1.53,0,10.965,13.12,16.14l8.77,3.48a15.857,15.857,0,0,1,6.05,3.74,7.227,7.227,0,0,1,1.79,4.93,6.938,6.938,0,0,1-2.89,5.78,12.342,12.342,0,0,1-7.67,2.21q-9.885,0-15.33-8.66L.01,50.61a23.161,23.161,0,0,0,8.73,7.94,25.937,25.937,0,0,0,12.39,2.93q9.7,0,15.41-4.93a15.589,15.589,0,0,0,5.79-12.23,15.064,15.064,0,0,0-3.45-10.15" fill="#ff5432"/>
    <path id="Tracé_44989" data-name="Tracé 44989" d="M92.57,126.27a15.064,15.064,0,0,0-3.45-10.15q-3.45-4.035-11.37-7.26l-6.73-2.72a18.666,18.666,0,0,1-6.34-3.65,6.213,6.213,0,0,1-1.83-4.5,6.389,6.389,0,0,1,2.26-4.93,8.851,8.851,0,0,1,6.17-2.04q7.155,0,11.84,6.46l6.64-6.71Q82.6,82.025,71.79,82.02q-8.085,0-13.46,4.33T52.96,98.24q0,10.965,13.12,16.14l8.77,3.48a15.857,15.857,0,0,1,6.05,3.74,7.227,7.227,0,0,1,1.79,4.93,6.938,6.938,0,0,1-2.89,5.78,12.342,12.342,0,0,1-7.67,2.21q-9.885,0-15.33-8.66l-6.56,6.71a23.161,23.161,0,0,0,8.73,7.94,25.937,25.937,0,0,0,12.39,2.93,30.888,30.888,0,0,0,6.58-.66l14.51-14.53a18.122,18.122,0,0,0,.12-1.97" fill="#ff5432"/>
  </g>
</svg>
